<svg xmlns="http://www.w3.org/2000/svg" width="33" height="33" fill="none"><path fill="#fff" fill-opacity=".1" fill-rule="evenodd" d="M16.5 0a16.5 16.5 0 1 1 0 33 16.5 16.5 0 0 1 0-33Z" clip-rule="evenodd"/><path fill="#FEFAFA" d="M16.32 5.74c-.05 0-.1 0-.14.02a10.35 10.35 0 0 0-3.32.59.48.48 0 0 0-.22.08A9.66 9.66 0 0 0 9.72 8.1a.48.48 0 0 0-.19.14l-.15.13a10.62 10.62 0 0 0-1.67 1.89 9.43 9.43 0 0 0-.4.63.48.48 0 0 0-.1.2c-.56.97-.95 2.04-1.16 3.17a.48.48 0 0 0-.05.22 6.7 6.7 0 0 0-.07.47A10.53 10.53 0 0 0 6 17.95a.48.48 0 0 0 .05.21 10.25 10.25 0 0 0 1.66 4.01 10.79 10.79 0 0 0 1.67 1.89l.15.13c.05.06.12.1.2.14a10.2 10.2 0 0 0 4.1 2.06 10.35 10.35 0 0 0 2.35.28.48.48 0 0 0 .3 0 10.35 10.35 0 0 0 2.35-.28c.33-.08.65-.18.97-.3a.48.48 0 0 0 .22-.08 9.44 9.44 0 0 0 2.92-1.69.48.48 0 0 0 .19-.13l.15-.13a10.8 10.8 0 0 0 1.67-1.89 9.4 9.4 0 0 0 .4-.63.47.47 0 0 0 .1-.2 10.24 10.24 0 0 0 1.16-3.18.48.48 0 0 0 .05-.21l.07-.48a10.53 10.53 0 0 0-.07-2.98.48.48 0 0 0-.05-.21 10.24 10.24 0 0 0-1.15-3.18.48.48 0 0 0-.11-.2 9.4 9.4 0 0 0-.4-.63 10.62 10.62 0 0 0-1.67-1.9l-.15-.12a.48.48 0 0 0-.2-.14 10.16 10.16 0 0 0-1.73-1.16 9.46 9.46 0 0 0-1.18-.52.48.48 0 0 0-.22-.08 9.05 9.05 0 0 0-.97-.3 10.35 10.35 0 0 0-2.35-.29.48.48 0 0 0-.16-.02Zm-3.57.64Zm7.15 0h.02-.02Zm-4.05.37v1.9c-.45.04-.91.06-1.34.17l-.33.1-.65-1.79.52-.16a9.44 9.44 0 0 1 1.8-.21Zm.96 0c.61.04 1.22.08 1.8.22l.52.16-.65 1.79-.33-.1c-.43-.1-.89-.13-1.34-.16v-1.9Zm-4.17.71.65 1.8c-.17.07-.34.13-.5.22-.26.13-.48.32-.72.48a.48.48 0 0 0-.26.12l-1.2-1.42c.41-.32.83-.63 1.3-.87.24-.13.48-.22.73-.32Zm7.38 0c.25.1.5.2.73.33.47.24.89.55 1.3.87l-1.2 1.42a.48.48 0 0 0-.26-.12c-.24-.16-.46-.35-.72-.48-.16-.1-.33-.15-.5-.23l.65-1.79ZM9.87 9.27l1.23 1.46c-.38.36-.74.74-1.04 1.17l-.07.12-1.65-.96.15-.24a9.64 9.64 0 0 1 1.38-1.55Zm12.92 0c.5.47.98.98 1.38 1.55l.15.24-1.65.96-.07-.12c-.3-.43-.66-.81-1.04-1.17l1.23-1.46Zm-6.94.35v1.87a4.72 4.72 0 0 0-1.92.63l-1.1-1.52c.14-.09.26-.2.4-.27.25-.14.5-.25.77-.35a.48.48 0 0 0 .1-.04c.2-.07.41-.13.63-.18.36-.1.74-.11 1.12-.14Zm.96 0c.38.03.76.05 1.12.13a5.74 5.74 0 0 1 1.5.58c.14.07.26.18.4.27l-1.1 1.52a4.72 4.72 0 0 0-1.92-.63V9.61Zm-4.77 1.52 1.13 1.54a4.78 4.78 0 0 0-1.2 1.63l-1.8-.59c.1-.27.22-.53.37-.78a.48.48 0 0 0 .05-.1l.25-.4c.3-.44.67-.85 1.07-1.2l.07-.06a.47.47 0 0 0 .06-.04Zm8.58 0a.48.48 0 0 0 .06.04l.07.06a6.73 6.73 0 0 1 1.07 1.2l.25.4a.47.47 0 0 0 .06.1c.14.25.26.51.37.78l-1.82.6a4.78 4.78 0 0 0-1.19-1.64l1.13-1.54Zm-12.74.76 1.65.95c-.11.22-.23.44-.32.67l-.05.2a.47.47 0 0 0-.1.35 6.96 6.96 0 0 0-.1.37l-1.88-.33a9.27 9.27 0 0 1 .8-2.21Zm16.9 0c.36.7.63 1.43.8 2.21l-1.87.33a6.99 6.99 0 0 0-.1-.37.48.48 0 0 0-.1-.34c-.02-.07-.03-.14-.06-.2-.08-.24-.2-.46-.32-.68l1.65-.95Zm-8.5.52a.47.47 0 0 0 .11 0 3.8 3.8 0 0 1 2.09.66c.04.06.1.1.17.13a3.8 3.8 0 0 1 1.26 1.74c.01.08.03.15.08.21a3.83 3.83 0 0 1 0 2.13.48.48 0 0 0-.07.22 3.8 3.8 0 0 1-1.27 1.74.48.48 0 0 0-.17.13 3.8 3.8 0 0 1-2.1.66.47.47 0 0 0-.1 0 3.8 3.8 0 0 1-3.53-2.53.48.48 0 0 0-.07-.21 3.82 3.82 0 0 1-.16-1.07c0-.37.06-.73.16-1.07a.48.48 0 0 0 .07-.21 3.8 3.8 0 0 1 3.53-2.53Zm6.5 2.21c.03.13.08.26.1.4a.48.48 0 0 0 .03.1l.04.29a6.72 6.72 0 0 1 0 1.61l-.04.3a.48.48 0 0 0-.02.1l-.11.4-1.8-.59a4.81 4.81 0 0 0 0-2.02l1.8-.59Zm-12.9 0 1.8.59a4.74 4.74 0 0 0 0 2.02l-1.8.58c-.03-.13-.08-.25-.1-.39a.47.47 0 0 0-.03-.1l-.04-.3a6.87 6.87 0 0 1-.05-.8c0-.27.02-.54.05-.8v-.01l.04-.3a.47.47 0 0 0 .02-.1l.11-.39Zm-3 .41 1.89.34a7.74 7.74 0 0 0-.06.85c0 .29.02.57.06.85l-1.89.33v-.03a9.56 9.56 0 0 1 0-2.3v-.04Zm18.9 0v.04a9.56 9.56 0 0 1 0 2.3v.03l-1.88-.33a7.97 7.97 0 0 0 0-1.7l1.88-.34ZM8.95 18l.1.37a.48.48 0 0 0 .1.35l.06.2c.09.24.21.45.32.68l-1.65.95a9.28 9.28 0 0 1-.8-2.21L8.95 18Zm14.76 0 1.87.34a9.27 9.27 0 0 1-.8 2.2l-1.65-.94c.11-.23.23-.44.32-.68.03-.06.04-.14.06-.2a.48.48 0 0 0 .1-.34l.1-.38Zm-11.74.13c.28.63.7 1.18 1.2 1.63l-1.13 1.55a.48.48 0 0 0-.06-.04l-.07-.06a6.73 6.73 0 0 1-1.07-1.2 5.78 5.78 0 0 1-.25-.4.47.47 0 0 0-.06-.1 5.74 5.74 0 0 1-.36-.79l1.8-.59Zm8.71 0 1.82.6a6.14 6.14 0 0 1-.37.77.47.47 0 0 0-.06.1 6.67 6.67 0 0 1-1.32 1.6v.01l-.07.06a.48.48 0 0 0-.06.04l-1.13-1.55a4.78 4.78 0 0 0 1.2-1.63Zm-6.74 2.2c.57.33 1.22.56 1.91.63v1.87c-.38-.03-.76-.05-1.12-.14a5.86 5.86 0 0 1-.62-.19.48.48 0 0 0-.1-.04 6.04 6.04 0 0 1-.77-.34c-.15-.08-.27-.19-.41-.27l1.1-1.52Zm4.79 0 1.1 1.52c-.14.08-.26.2-.4.27a6.04 6.04 0 0 1-.77.34.47.47 0 0 0-.1.04c-.2.08-.41.14-.63.2-.36.08-.74.1-1.12.13v-1.87a4.72 4.72 0 0 0 1.92-.63Zm-8.74.1.07.12c.3.43.66.8 1.04 1.17l-1.23 1.46c-.51-.47-.98-.98-1.38-1.55l-.15-.25 1.65-.95Zm12.68 0 1.65.95-.15.25c-.4.57-.87 1.08-1.38 1.55l-1.23-1.46c.38-.36.74-.74 1.04-1.17l.07-.12ZM11.8 22.35a.48.48 0 0 0 .26.13c.25.16.47.35.73.48.16.09.33.15.5.22l-.65 1.8c-.25-.11-.5-.2-.73-.33a9.3 9.3 0 0 1-1.3-.87l1.2-1.43Zm9.06 0 1.2 1.43a9.2 9.2 0 0 1-1.3.87c-.24.13-.5.22-.74.32l-.65-1.79c.17-.07.34-.13.5-.22.26-.13.48-.32.73-.48a.48.48 0 0 0 .26-.13Zm-6.68 1.17.33.1c.43.1.89.13 1.34.16v1.9a9.44 9.44 0 0 1-1.8-.22c-.18-.04-.35-.1-.52-.16l.65-1.78Zm4.3 0 .65 1.78c-.17.06-.34.12-.52.16-.58.15-1.19.2-1.8.22v-1.9c.45-.03.91-.06 1.34-.16l.33-.1Zm-5.74 2.54h.02-.02Zm7.18 0h-.01Z"/></svg>